<?xml version="1.0" encoding="utf-8"?>
<!-- Generator: Adobe Illustrator 28.2.0, SVG Export Plug-In . SVG Version: 6.00 Build 0)  -->
<svg version="1.1" id="Camada_1" xmlns="http://www.w3.org/2000/svg" xmlns:xlink="http://www.w3.org/1999/xlink" x="0px" y="0px"
	 viewBox="0 0 28 28" style="enable-background:new 0 0 28 28;" xml:space="preserve">
<style type="text/css">
	.st0{fill:#FFFFFF;}
</style>
<path class="st0" d="M22.9,0.9c1.2-1.2,3.1-1.2,4.2,0s1.2,3.1,0,4.2l-8.8,8.8c0,0,0,0.1,0,0.2l8.8,8.8c1.2,1.2,1.2,3.1,0,4.2
	s-3.1,1.2-4.2,0l-8.8-8.8c0,0-0.1,0-0.2,0l-8.8,8.8c-1.2,1.2-3.1,1.2-4.2,0s-1.2-3.1,0-4.2l8.8-8.8c0,0,0-0.1,0-0.2L0.9,5.1
	c-1.2-1.2-1.2-3.1,0-4.2s3.1-1.2,4.2,0l8.8,8.8c0,0,0.1,0,0.2,0L22.9,0.9z"/>
</svg>
