<?xml version="1.0" encoding="UTF-8"?><svg id="logo" xmlns="http://www.w3.org/2000/svg" viewBox="0 0 310 100"><defs><style>.cls-1{fill:#fff;}</style></defs><g id="logotipo"><path class="cls-1" d="M160.619140625,12.15673828125c0,.1298828125-.041015625.248046875-.123046875.3564453125-.0830078125.1083984375-.173828125.162109375-.2724609375.162109375-.814453125.0771484375-1.4794921875.33984375-1.9970703125.787109375-.5166015625.4482421875-1.0498046875,1.3017578125-1.6005859375,2.5625l-8.4140625,18.9580078125c-.0556640625.17578125-.2099609375.263671875-.462890625.263671875-.197265625,0-.3515625-.087890625-.4619140625-.263671875l-4.72265625-9.8486328125-5.4248046875,9.8486328125c-.109375.17578125-.263671875.263671875-.4619140625.263671875-.2421875,0-.4013671875-.087890625-.478515625-.263671875l-8.26611328125-18.9580078125c-.5166015625-1.18359375-1.0615234375-2.009765625-1.6328125-2.4794921875-.572265625-.4697265625-1.3701171875-.759765625-2.392578125-.8701171875-.0888671875,0-.1708984375-.0458984375-.248046875-.1376953125s-.115234375-.197265625-.115234375-.31640625c0-.302734375.087890625-.4541015625.2646484375-.4541015625.7373046875,0,1.5078125.033203125,2.3115234375.099609375.748046875.0654296875,1.453125.0986328125,2.11328125.0986328125.671875,0,1.4638671875-.033203125,2.3779296875-.0986328125.95703125-.06640625,1.8046875-.099609375,2.5419921875-.099609375.17578125,0,.263671875.1513671875.263671875.4541015625s-.0556640625.4541015625-.1650390625.4541015625c-.7373046875.0546875-1.3173828125.2431640625-1.7412109375.5634765625s-.634765625.7412109375-.634765625,1.259765625c0,.265625.087890625.59765625.263671875.9951171875l6.74267578125,15.4658203125,3.9638671875-7.3642578125-3.6181640625-7.5703125c-.6484375-1.3603515625-1.1826171875-2.236328125-1.599609375-2.62890625-.4189453125-.3916015625-1.05029296875-.6318359375-1.89794921875-.720703125-.076171875,0-.150390625-.0458984375-.22265625-.1376953125-.0712890625-.091796875-.1064453125-.197265625-.1064453125-.31640625,0-.302734375.076171875-.4541015625.23046875-.4541015625.7373046875,0,1.41259765625.033203125,2.02880859375.099609375.5947265625.0654296875,1.2265625.0986328125,1.8974609375.0986328125.66015625,0,1.3583984375-.033203125,2.0947265625-.0986328125.7587890625-.06640625,1.5068359375-.099609375,2.244140625-.099609375.17578125,0,.263671875.1513671875.263671875.4541015625s-.0546875.4541015625-.1650390625.4541015625c-1.4736328125.099609375-2.2099609375.51953125-2.2099609375,1.26171875,0,.33203125.169921875.8466796875.5107421875,1.5439453125l2.3916015625,4.8505859375,2.3779296875-4.439453125c.330078125-.6298828125.4951171875-1.16015625.4951171875-1.591796875,0-1.017578125-.7373046875-1.55859375-2.2109375-1.625-.1318359375,0-.1982421875-.1513671875-.1982421875-.4541015625,0-.1083984375.033203125-.2109375.0986328125-.3076171875.06640625-.09765625.1328125-.146484375.1982421875-.146484375.5283203125,0,1.1767578125.033203125,1.947265625.099609375.736328125.0654296875,1.341796875.0986328125,1.8154296875.0986328125.3408203125,0,.8408203125-.02734375,1.5009765625-.08203125.8359375-.0771484375,1.5341796875-.1162109375,2.095703125-.1162109375.1318359375,0,.1982421875.1298828125.1982421875.3896484375,0,.345703125-.12109375.5185546875-.36328125.5185546875-.8583984375.0888671875-1.548828125.326171875-2.0712890625.712890625s-1.173828125,1.265625-1.955078125,2.63671875l-3.166015625,5.865234375,4.28515625,8.73828125,6.341796875-14.7353515625c.2197265625-.541015625.330078125-1.0390625.330078125-1.4931640625,0-1.0830078125-.7373046875-1.658203125-2.2109375-1.724609375-.1318359375,0-.1982421875-.1513671875-.1982421875-.4541015625s.0986328125-.4541015625.296875-.4541015625c.5390625,0,1.1767578125.033203125,1.9140625.099609375.681640625.0654296875,1.2529296875.0986328125,1.71484375.0986328125.484375,0,1.044921875-.033203125,1.6826171875-.0986328125.6591796875-.06640625,1.2529296875-.099609375,1.78125-.099609375.1533203125,0,.23046875.1298828125.23046875.3896484375Z"/><path class="cls-1" d="M173.2744140625,34.25732421875c0,.3076171875-.087890625.4619140625-.263671875.4619140625-.7373046875,0-1.611328125-.033203125-2.623046875-.099609375-.96875-.0654296875-1.7880859375-.0986328125-2.458984375-.0986328125s-1.490234375.033203125-2.4580078125.0986328125c-1.0234375.06640625-1.9091796875.099609375-2.6572265625.099609375-.17578125,0-.263671875-.154296875-.263671875-.4619140625,0-.275390625.087890625-.423828125.263671875-.4462890625,1.3310546875-.1533203125,2.236328125-.4013671875,2.71484375-.7421875.478515625-.341796875.7177734375-1.0244140625.7177734375-2.0478515625v-15.5390625c0-.7705078125-.0966796875-1.3125-.2890625-1.6259765625s-.53125-.5615234375-1.0146484375-.7431640625c-.484375-.181640625-1.193359375-.328125-2.12890625-.4375-.17578125,0-.263671875-.1513671875-.263671875-.4541015625s.087890625-.4541015625.263671875-.4541015625c.748046875,0,1.6337890625.033203125,2.6572265625.099609375.9677734375.0654296875,1.787109375.0986328125,2.4580078125.0986328125s1.490234375-.033203125,2.458984375-.0986328125c1.01171875-.06640625,1.8857421875-.099609375,2.623046875-.099609375.17578125,0,.263671875.1513671875.263671875.4541015625s-.087890625.4541015625-.263671875.4541015625c-.923828125.109375-1.6279296875.255859375-2.1123046875.4375-.4833984375.181640625-.8193359375.4267578125-1.005859375.734375-.1875.30859375-.28125.853515625-.28125,1.634765625v15.5390625c0,.759765625.09375,1.2958984375.28125,1.6103515625.1865234375.3134765625.51953125.5615234375.998046875.7421875.478515625.181640625,1.1796875.328125,2.103515625.4375.1875.0224609375.2802734375.1708984375.2802734375.4462890625Z"/><path class="cls-1" d="M201.2255859375,34.25732421875c0,.3076171875-.087890625.4619140625-.263671875.4619140625-.7373046875,0-1.6171875-.033203125-2.640625-.099609375-.978515625-.0654296875-1.8037109375-.0986328125-2.474609375-.0986328125-.6494140625,0-1.5458984375.033203125-2.689453125.0986328125-1.19921875.06640625-2.1669921875.099609375-2.904296875.099609375-.17578125,0-.263671875-.154296875-.263671875-.4619140625,0-.275390625.0771484375-.423828125.23046875-.4462890625,1.4853515625-.17578125,2.2275390625-.533203125,2.2275390625-1.072265625,0-.3076171875-.2412109375-.703125-.7255859375-1.1875l-6.55078125-6.666015625c-.3515625-.3525390625-.6572265625-.5830078125-.9150390625-.693359375-.2587890625-.109375-.61328125-.1650390625-1.064453125-.1650390625v6.99609375c0,.7587890625.095703125,1.294921875.2880859375,1.6083984375s.5341796875.5615234375,1.0234375.7431640625,1.1904296875.3271484375,2.103515625.4365234375c.1875.0224609375.2802734375.1708984375.2802734375.4462890625,0,.3076171875-.087890625.4619140625-.263671875.4619140625-.7373046875,0-1.6171875-.033203125-2.6396484375-.099609375-.9814453125-.0654296875-1.8095703125-.0986328125-2.4833984375-.0986328125-.6630859375,0-1.48046875.033203125-2.4501953125.0986328125-1.0234375.06640625-1.9033203125.099609375-2.6396484375.099609375-.1767578125,0-.2646484375-.154296875-.2646484375-.4619140625,0-.275390625.087890625-.423828125.2646484375-.4462890625,1.330078125-.1533203125,2.2353515625-.4013671875,2.7138671875-.7421875.478515625-.341796875.7177734375-1.0244140625.7177734375-2.0478515625v-15.5390625c0-.7705078125-.0966796875-1.3125-.2890625-1.6259765625s-.5302734375-.5615234375-1.0146484375-.7431640625-1.193359375-.328125-2.1279296875-.4375c-.1767578125,0-.2646484375-.1513671875-.2646484375-.4541015625s.087890625-.4541015625.2646484375-.4541015625c.736328125,0,1.6162109375.033203125,2.6396484375.099609375.9697265625.0654296875,1.787109375.0986328125,2.4501953125.0986328125.673828125,0,1.501953125-.033203125,2.4833984375-.0986328125,1.0224609375-.06640625,1.90234375-.099609375,2.6396484375-.099609375.17578125,0,.263671875.1513671875.263671875.4541015625s-.087890625.4541015625-.263671875.4541015625c-.9345703125.1103515625-1.64453125.255859375-2.1279296875.4375-.484375.181640625-.8232421875.4296875-1.015625.744140625-.1923828125.3134765625-.2880859375.8564453125-.2880859375,1.6279296875v7.486328125c.4287109375,0,.775390625-.0546875,1.0390625-.1650390625.2646484375-.1103515625.578125-.3408203125.9404296875-.693359375l7.244140625-7.14453125c.59375-.564453125.890625-.974609375.890625-1.2294921875,0-.298828125-.140625-.5234375-.4208984375-.6728515625s-.84375-.2802734375-1.69140625-.390625c-.17578125,0-.263671875-.1513671875-.263671875-.4541015625s.0986328125-.4541015625.296875-.4541015625c.5166015625,0,1.19921875.033203125,2.0458984375.099609375.90234375.0654296875,1.650390625.0986328125,2.244140625.0986328125s1.25390625-.0380859375,1.98046875-.115234375c.6044921875-.0546875,1.1220703125-.0830078125,1.55078125-.0830078125.1533203125,0,.23046875.1513671875.23046875.4541015625s-.087890625.4541015625-.263671875.4541015625c-1.0556640625.1328125-1.8857421875.3486328125-2.490234375.6474609375-.6044921875.2998046875-1.330078125.853515625-2.1767578125,1.662109375l-7.5419921875,7.1611328125,9.35546875,9.51953125c.650390625.6767578125,1.29296875,1.166015625,1.927734375,1.466796875.634765625.2998046875,1.5810546875.5263671875,2.8388671875.6787109375.1982421875.0224609375.2978515625.1708984375.2978515625.4462890625Z"/><path class="cls-1" d="M213.896484375,34.25732421875c0,.3076171875-.087890625.4619140625-.263671875.4619140625-.7373046875,0-1.611328125-.033203125-2.623046875-.099609375-.96875-.0654296875-1.7880859375-.0986328125-2.458984375-.0986328125s-1.490234375.033203125-2.4580078125.0986328125c-1.0234375.06640625-1.9091796875.099609375-2.6572265625.099609375-.17578125,0-.263671875-.154296875-.263671875-.4619140625,0-.275390625.087890625-.423828125.263671875-.4462890625,1.3310546875-.1533203125,2.236328125-.4013671875,2.71484375-.7421875.478515625-.341796875.7177734375-1.0244140625.7177734375-2.0478515625v-15.5390625c0-.7705078125-.0966796875-1.3125-.2890625-1.6259765625s-.53125-.5615234375-1.0146484375-.7431640625c-.484375-.181640625-1.193359375-.328125-2.12890625-.4375-.17578125,0-.263671875-.1513671875-.263671875-.4541015625s.087890625-.4541015625.263671875-.4541015625c.748046875,0,1.6337890625.033203125,2.6572265625.099609375.9677734375.0654296875,1.787109375.0986328125,2.4580078125.0986328125s1.490234375-.033203125,2.458984375-.0986328125c1.01171875-.06640625,1.8857421875-.099609375,2.623046875-.099609375.17578125,0,.263671875.1513671875.263671875.4541015625s-.087890625.4541015625-.263671875.4541015625c-.923828125.109375-1.6279296875.255859375-2.1123046875.4375-.4833984375.181640625-.8193359375.4267578125-1.005859375.734375-.1875.30859375-.28125.853515625-.28125,1.634765625v15.5390625c0,.759765625.09375,1.2958984375.28125,1.6103515625.1865234375.3134765625.51953125.5615234375.998046875.7421875.478515625.181640625,1.1796875.328125,2.103515625.4375.1875.0224609375.2802734375.1708984375.2802734375.4462890625Z"/><path class="cls-1" d="M229.1728515625,12.50634765625v20.6943359375h6.138671875v1.3203125h-7.5908203125V12.50634765625h1.4521484375Z"/><path class="cls-1" d="M259.37109375,23.56298828125c0,6.3369140625-4.9833984375,11.3212890625-11.4189453125,11.3212890625-6.46875,0-11.419921875-4.984375-11.419921875-11.3212890625s4.9833984375-11.353515625,11.419921875-11.353515625c6.435546875,0,11.4189453125,5.0166015625,11.4189453125,11.353515625ZM257.853515625,23.56298828125c0-5.6435546875-4.224609375-10.033203125-9.9013671875-10.033203125s-9.9013671875,4.3896484375-9.9013671875,10.033203125c0,5.611328125,4.224609375,10.0009765625,9.9013671875,10.0009765625s9.9013671875-4.3896484375,9.9013671875-10.0009765625Z"/><path class="cls-1" d="M263.1953125,12.50634765625l6.4697265625,18.7470703125,6.2705078125-18.7470703125h1.583984375l-7.8544921875,22.90625-8.0537109375-22.90625h1.583984375Z"/><path class="cls-1" d="M291.51171875,13.82666015625h-9.109375v7.9873046875h8.9111328125v1.3203125h-8.9111328125v10.06640625h9.109375v1.3203125h-10.5615234375V12.50634765625h10.5615234375v1.3203125Z"/><path class="cls-1" d="M306.294921875,16.23681640625c-1.353515625-2.640625-3.7294921875-2.70703125-4.3232421875-2.70703125-2.607421875,0-4.0927734375,1.8818359375-4.0927734375,4.0927734375,0,2.3759765625,1.650390625,3.16796875,3.861328125,4.2578125,2.1787109375,1.0556640625,3.267578125,1.517578125,4.3896484375,2.310546875.95703125.66015625,2.34375,1.814453125,2.34375,4.2568359375,0,3.697265625-3.1025390625,6.4365234375-6.865234375,6.4365234375-2.8388671875,0-4.291015625-1.353515625-5.1162109375-2.310546875-.857421875-.990234375-1.220703125-1.8486328125-1.4189453125-2.4091796875l1.25390625-.5947265625c.296875.8583984375.8583984375,1.716796875,1.1884765625,2.1123046875.990234375,1.2548828125,2.607421875,1.8818359375,4.1259765625,1.8818359375,2.9697265625,0,5.3134765625-2.1787109375,5.3134765625-5.0830078125,0-1.1884765625-.4619140625-2.4423828125-2.1455078125-3.4658203125-.626953125-.3623046875-1.9140625-1.0224609375-3.7294921875-1.9140625-2.1787109375-1.0556640625-3.267585648376553-1.650390625-4.0263671875-2.904296875-.4951171875-.8251953125-.693359375-1.650390625-.693359375-2.5078125,0-2.5419921875,1.716796875-5.4794921875,5.6435546875-5.4794921875,2.2119140625,0,4.224609375,1.056640625,5.3466796875,3.1357421875l-1.0556640625.8916015625Z"/><path class="cls-1" d="M135.19775390625,58.189453125c-1.2392578125.630859375-2.2470703125.755859375-3.0869140625.755859375-2.5830078125,0-4.3251953125-.880859375-5.5009765625-2.0361328125-1.259765625-1.2177734375-2.18359375-3.0654296875-2.18359375-5.3115234375,0-2.205078125.923828125-4.052734375,2.18359375-5.2705078125,1.23828125-1.1962890625,3.044921875-2.015625,5.228515625-2.015625.923828125,0,1.994140625.1884765625,3.359375.7763671875v3.73828125c-.71484375-.755859375-1.78515625-1.4912109375-3.275390625-1.4912109375-1.17578125,0-2.12109375.3779296875-2.85546875,1.091796875-.77734375.755859375-1.3232421875,1.8896484375-1.3232421875,3.2333984375,0,1.44921875.587890625,2.4775390625,1.2177734375,3.0859375.2939453125.294921875,1.3017578125,1.17578125,3.0234375,1.17578125.83984375,0,1.9736328125-.23046875,3.212890625-1.4482421875v3.7158203125Z"/><path class="cls-1" d="M149.4140625,52.919921875c0,1.34375-.16796875,3.001953125-1.5546875,4.4296875-1.34375,1.38671875-2.896484375,1.595703125-4.3671875,1.595703125-1.46875,0-3.0234375-.208984375-4.3671875-1.595703125-1.384765625-1.427734375-1.552734375-3.0859375-1.552734375-4.4296875v-8.29296875h3.232421875v8.208984375c0,.609375.04296875,1.6376953125.7353515625,2.3515625.5673828125.609375,1.34375.734375,1.9521484375.734375.609375,0,1.38671875-.125,1.953125-.734375.693359375-.7138671875.734375-1.7421875.734375-2.3515625v-8.208984375h3.234375v8.29296875Z"/><path class="cls-1" d="M155.505859375,44.626953125v11.2744140625h4.345703125v2.7294921875h-7.580078125v-14.00390625h3.234375Z"/><path class="cls-1" d="M166.005859375,47.35546875v11.275390625h-3.234375v-11.275390625h-3.0439453125v-2.728515625h9.322265625v2.728515625h-3.0439453125Z"/><path class="cls-1" d="M182.384765625,52.919921875c0,1.34375-.16796875,3.001953125-1.5546875,4.4296875-1.34375,1.38671875-2.896484375,1.595703125-4.3671875,1.595703125-1.46875,0-3.0234375-.208984375-4.3671875-1.595703125-1.384765625-1.427734375-1.552734375-3.0859375-1.552734375-4.4296875v-8.29296875h3.232421875v8.208984375c0,.609375.04296875,1.6376953125.7353515625,2.3515625.5673828125.609375,1.34375.734375,1.9521484375.734375.609375,0,1.38671875-.125,1.953125-.734375.693359375-.7138671875.734375-1.7421875.734375-2.3515625v-8.208984375h3.234375v8.29296875Z"/><path class="cls-1" d="M190.15625,44.626953125c1.7841796875,0,2.896484375.587890625,3.568359375,1.216796875.587885716253368.5673828125,1.21875,1.5751953125,1.21875,3.12890625,0,.8818359375-.189453125,1.9736328125-1.091796875,2.85546875-.4833984375.4619140625-1.17578125.8818359375-1.953125,1.0703125l4.3046875,5.732421875h-3.947265625l-3.779296875-5.521484375v5.521484375h-3.234375v-14.00390625h4.9140625ZM188.4765625,50.98828125h.734375c.587890625,0,1.3857421875-.0625,1.931640625-.609375.23046875-.23046875.525390625-.671875.525390625-1.3642578125,0-.7978515625-.37890625-1.2177734375-.6513671875-1.427734375-.5244140625-.3994140625-1.3642578125-.4404296875-1.7841796875-.4404296875h-.755859375v3.841796875Z"/><path class="cls-1" d="M206.240234375,55.9853515625h-5.291015625l-1.0703125,2.6455078125h-3.359375l5.6484375-14.00390625h2.9599609375l5.5224609375,14.00390625h-3.359375l-1.05078125-2.6455078125ZM205.359375,53.5078125l-1.72265625-4.703125-1.7421875,4.703125h3.46484375Z"/><path class="cls-1" d="M224.5732421875,44.626953125c1.2177734375,0,2.5615234375.16796875,3.6748046875,1.154296875,1.1962890625,1.0498046875,1.3642578125,2.435546875,1.3642578125,3.4013671875,0,1.763671875-.671875,2.7509765625-1.1962890625,3.2958984375-1.11328125,1.134765625-2.5830078125,1.2392578125-3.5703125,1.2392578125h-1.97265625v4.9130859375h-3.234375v-14.00390625h4.9345703125ZM222.873046875,51.072265625h1.154296875c.44140625,0,1.2177734375-.021484375,1.7421875-.525390625.294921875-.29296875.525390625-.7763671875.525390625-1.384765625,0-.587890625-.2099609375-1.0712890625-.525390625-1.365234375-.482421875-.4619140625-1.17578125-.525390625-1.8046875-.525390625h-1.091796875v3.80078125Z"/><path class="cls-1" d="M244.291015625,46.34765625c1.322265625,1.28125,2.18359375,3.12890625,2.18359375,5.291015625,0,1.869140625-.671875,3.779296875-2.18359375,5.25-1.3017578125,1.259765625-3.0654296875,2.056640625-5.4169921875,2.056640625-2.6240234375,0-4.4091796875-1.048828125-5.458984375-2.056640625-1.34375-1.259765625-2.18359375-3.150390625-2.18359375-5.20703125,0-2.015625.9033203125-4.052734375,2.1630859375-5.3125.9443359375-.9453125,2.6875-2.0576171875,5.4794921875-2.0576171875,2.18359375,0,4.0107421875.671875,5.4169921875,2.0361328125ZM235.787109375,48.490234375c-.6083984375.587890625-1.23828125,1.6162109375-1.23828125,3.169921875,0,1.28125.419921875,2.3095703125,1.28125,3.1494140625.90234375.8603515625,1.91015625,1.1552734375,3.001953125,1.1552734375,1.427734375,0,2.435546875-.525390625,3.107421875-1.197265625.5458984375-.525390625,1.2177734375-1.51171875,1.2177734375-3.12890625,0-1.4482421875-.587890625-2.51953125-1.2177734375-3.1484375-.693359375-.671875-1.8056640625-1.197265625-3.0859375-1.197265625-1.21875,0-2.310546875.44140625-3.06640625,1.197265625Z"/><path class="cls-1" d="M253.6162109375,44.626953125c1.2177734375,0,2.5615234375.16796875,3.6748046875,1.154296875,1.1962890625,1.0498046875,1.3642578125,2.435546875,1.3642578125,3.4013671875,0,1.763671875-.671875,2.7509765625-1.1962890625,3.2958984375-1.11328125,1.134765625-2.5830078125,1.2392578125-3.5703125,1.2392578125h-1.97265625v4.9130859375h-3.234375v-14.00390625h4.9345703125ZM251.916015625,51.072265625h1.154296875c.44140625,0,1.2177734375-.021484375,1.742181062894815-.525390625.294928312105185-.29296875.525397062105185-.7763671875.525397062105185-1.384765625,0-.587890625-.2099609375-1.0712890625-.525397062105185-1.365234375-.482415437894815-.4619140625-1.175774812894815-.525390625-1.804681062894815-.525390625h-1.091796875v3.80078125Z"/><path class="cls-1" d="M272.326171875,52.919921875c0,1.34375-.16796875,3.001953125-1.5546875,4.4296875-1.34375,1.38671875-2.896484375,1.595703125-4.3671875,1.595703125-1.46875,0-3.0234375-.208984375-4.3671875-1.595703125-1.384765625-1.427734375-1.552734375-3.0859375-1.552734375-4.4296875v-8.29296875h3.232421875v8.208984375c0,.609375.04296875,1.6376953125.7353515625,2.3515625.5673828125.609375,1.34375.734375,1.9521484375.734375.609375,0,1.38671875-.125,1.953125-.734375.693359375-.7138671875.734375-1.7421875.734375-2.3515625v-8.208984375h3.234375v8.29296875Z"/><path class="cls-1" d="M278.41796875,44.626953125v11.2744140625h4.345703125v2.7294921875h-7.580078125v-14.00390625h3.234375Z"/><path class="cls-1" d="M293.263671875,55.9853515625h-5.291015625l-1.0712890625,2.6455078125h-3.359375l5.6474609375-14.00390625h2.9609375l5.521484375,14.00390625h-3.359382434959116l-1.048820690040884-2.6455078125ZM292.380859375,53.5078125l-1.720703125-4.703125-1.7431640625,4.703125h3.4638671875Z"/><path class="cls-1" d="M303.953125,44.626953125c1.7841796875,0,2.896484375.587890625,3.568359375,1.216796875.587890625.5673828125,1.21875,1.5751953125,1.21875,3.12890625,0,.8818359375-.189453125,1.9736328125-1.091796875,2.85546875-.4833984375.4619140625-1.17578125.8818359375-1.953125,1.0703125l4.3046875,5.732421875h-3.947265625l-3.779296875-5.521484375v5.521484375h-3.234375v-14.00390625h4.9140625ZM302.2734375,50.98828125h.734375c.587890625,0,1.3857421875-.0625,1.931640625-.609375.23046875-.23046875.525390625-.671875.525390625-1.3642578125,0-.7978515625-.37890625-1.2177734375-.6513671875-1.427734375-.5244140625-.3994140625-1.3642578125-.4404296875-1.7841796875-.4404296875h-.755859375v3.841796875Z"/><path class="cls-1" d="M130.77099609375,68.3486328125c.97265625,0,3.185546875.0537109375,4.5888671875,1.3759765625,1.16064453125,1.107421875,1.29541015625,2.619140625,1.29541015625,3.4013671875,0,.7021484375-.107421875,1.51171875-.59375,2.294921875-.45849609375.7548828125-1.07958984375,1.1328125-1.51123046875,1.322265625.8642578125.134765625,1.83544921875.56640625,2.48291015625,1.21484375.59375.59375,1.1611328125,1.619140625,1.1611328125,3.2119140625,0,1.80859375-.7021484375,2.9423828125-1.404296875,3.6435546875-1.48388671875,1.4306640625-3.64306640625,1.5390625-4.74951171875,1.5390625h-6.775390625v-18.00390625h5.505859375ZM129.36767578125,75.6630859375h.6748046875c.5673828125,0,1.51171875-.0810546875,2.10546875-.5126953125.3779296875-.26953125.728515625-.8095703125.728515625-1.5927734375,0-.7822265625-.3779296875-1.2685546875-.701171875-1.51171875-.59375-.4580078125-1.404296875-.4580078125-2.1591796875-.4580078125h-.6484375v4.0751953125ZM129.36767578125,83.11328125h.9990234375c1.052734375,0,2.3212890625-.02734375,3.0771484375-.728515625.3779296875-.3505859375.59375-.8642578125.59375-1.51171875,0-.728515625-.296875-1.21484375-.56640625-1.4580078125-.7294921875-.6748046875-2.1328125-.6748046875-2.9697265625-.6748046875h-1.1337890625v4.373046875Z"/><path class="cls-1" d="M148.96875,68.3486328125c2.2939453125,0,3.724609375.755859375,4.5888671875,1.5654296875.755859375.728515625,1.5654296875,2.0244140625,1.5654296875,4.021484375,0,1.1337890625-.2431640625,2.5380859375-1.404296875,3.6708984375-.6201171875.5947265625-1.5107421875,1.1337890625-2.509765625,1.376953125l5.533203125,7.369140625h-5.07421875l-4.859375-7.0986328125v7.0986328125h-4.15625v-18.00390625h6.31640625ZM146.80859375,76.52734375h.9453125c.755859375,0,1.78125-.0810546875,2.4833984375-.783203125.296875-.296875.6748046875-.86328125.6748046875-1.75390625,0-1.0263671875-.486328125-1.56640625-.8369140625-1.8359375-.6748046875-.5126953125-1.7548828125-.56640625-2.294921875-.56640625h-.9716796875v4.939453125Z"/><path class="cls-1" d="M171.26953125,82.951171875h-6.802734375l-1.3759765625,3.4013671875h-4.3193359375l7.26171875-18.00390625h3.8056640625l7.098628342682787,18.00390625h-4.318354905182787l-1.349609375-3.4013671875ZM170.1357421875,79.7666015625l-2.2138671875-6.046875-2.240234375,6.046875h4.4541015625Z"/><path class="cls-1" d="M189.6015625,72.748046875c-1.349609375-1.21484375-2.509765625-1.2958984375-3.0234375-1.2958984375-.56640625,0-1.2685546875.0810546875-1.75390625.62109375-.2705078125.2705078125-.458984375.6748046875-.458984375,1.1337890625,0,.431640625.134765625.755859375.404296875.9990234375.4326171875.404296875,1.052734375.56640625,2.267578125,1.025390625l1.349609375.5126953125c.783203125.296875,1.7548828125.7021484375,2.45703125,1.376953125,1.052734375.9990234375,1.322265625,2.2939453125,1.322265625,3.3466796875,0,1.86328125-.6474609375,3.482421875-1.5927734375,4.4541015625-1.5927734375,1.673828125-3.9140625,1.8359375-5.1015625,1.8359375-1.2958984375,0-2.4296875-.189453125-3.5625-.755859375-.91796875-.458984375-1.970703125-1.2958984375-2.6455078125-1.970703125l2.1591796875-2.9697265625c.458984375.458984375,1.1875,1.080078125,1.673828125,1.376953125.701171875.431640625,1.4306640625.6474609375,2.267578125.6474609375.5390625,0,1.294921875-.107421875,1.888671875-.6201171875.3515625-.296875.6484375-.783203125.6484375-1.4580078125,0-.59375-.2431640625-.9716796875-.62109375-1.2958984375-.4853515625-.404296875-1.592778128360806-.8095703125-2.10546875-.998046875l-1.484375-.5126953125c-.8369140625-.2978515625-1.80859375-.6748046875-2.5107421875-1.4306640625-.9443359375-.9990234375-1.0791015625-2.267578125-1.0791015625-3.1318359375,0-1.5927734375.4853515625-2.9423828125,1.5654296875-4.048828125,1.2685546875-1.2958984375,2.7802734375-1.646484375,4.453125-1.646484375,1.2421875,0,3.2392578125.2158203125,5.3447265625,1.78125l-1.8623046875,3.0234375Z"/><path class="cls-1" d="M200.75390625,68.3486328125v18.00390625h-4.15625v-18.00390625h4.15625Z"/><path class="cls-1" d="M210.2841796875,68.3486328125v14.4951171875h5.587890625v3.5087890625h-9.744140625v-18.00390625h4.15625Z"/><path class="cls-1" d="M228.69921875,74.421875c1.646484375,0,2.9150390625,1.2685546875,2.9150390625,2.9150390625s-1.2685546875,2.9150390625-2.9150390625,2.9150390625-2.9150390625-1.2685546875-2.9150390625-2.9150390625,1.2685546875-2.9150390625,2.9150390625-2.9150390625Z"/></g><g id="_ícone"><path id="topo_centro" class="cls-1" d="M70.66229248046875,19.09173583984375c-.20452880859375.03839111328125-.4090576171875.081787109375-.61309814453125.12518310546875-.51898193359375.1107177734375-1.0556640625.22491455078125-1.608642578125.2568359375-2.609130859375.16259765625-4.73480224609375-1.0179443359375-6.14385986328125-3.39300537109375-1.11187744140625-1.874267578125-.9635009765625-3.8643798828125.44061279296875-5.91473388671875,1.4080810546875-2.059326171875,3.402587890625-2.755615234375,6.1024169921875-2.119140625.5643310546875.13311767578125,1.54901123046875-.16912841796875,1.91522216796875-.58660888671875,1.609375-1.8316650390625,2.244873046875-4.11553955078125,1.9910888671875-7.1341552734375-4.4337158203125.63970947265625-8.7557373046875,2.21673583984375-12.65771484375,4.716552734375-.35394287109375.23504638671875-.7130126953125.4610595703125-1.05828857421875.7108154296875-.05218505859375.03643798828125-.10455322265625.072265625-.15655517578125.10906982421875-1.46636962890625,1.0374755859375-2.869140625,2.20440673828125-4.1822509765625,3.5174560546875l-.00006103515625.00006103515625c-1.675537109375-1.675537109375-3.493896484375-3.1192626953125-5.41094970703125-4.34600830078125-3.75408935546875-2.4024658203125-7.89739990234375-3.94384765625-12.15399169921875-4.625244110822678-1.69342041015625,2.502502411603928-2.41278076171875,5.398193329572678-2.1224365234375,8.621032685041428.025146484375.27978515625.1015625.475341796875.21441650390625.5511474609375.11236572265625.0738525390625.31884765625.06884765625.58203125-.0179443359375.86102294921875-.2818603515625,1.77972412109375-.57012939453125,2.711181640625-.73321533203125,2.22369384765625-.385986328125,4.14434814453125.69384765625,5.2813720703125,2.96563720703125,1.05657958984375,2.11767578125.72589111328125,4.2388916015625-.90740966796875,5.8209228515625-1.93682861328125,1.8768310546875-3.98809814453125,2.61993408203125-6.26849365234375,2.267333984375-.5179443359375-.07928466796875-1.0408935546875-.09478759765625-1.5140380859375-.04541015625-.58154296875.06134033203125-.95758056640625.21295166015625-1.1187744140625.450927734375-.162109375.2393798828125-.16558837890625.65234375-.01031494140625,1.22637939453125.23065185546875.8533935546875.51849365234375,1.7152099609375.79742431640625,2.54864501953125.3193359375.95465087890625.6495361328125,1.942138671875.90289306640625,2.942138671875.2706298828125,1.06939697265625.58697509765625,1.15911865234375,1.69781494140625.9481201171875l.96160888671875-.18353271484375c3.05859375-.58551025390625,6.22119140625-1.19049072265625,9.37982177734375-1.36163330078125.09564208984375-.00494384765625.19073486328125-.0074462890625.28485107421875-.0074462890625,1.52783203125,0,2.872802734375.6788330078125,3.7225341796875,1.89031982421875.98712158203125,1.40850830078125,1.1488037109375,3.30224609375.43170166015625,5.0662841796875-.346923828125.8529052734375-.20843505859375,1.29034423828125.54949951171875,1.732666015625,1.67034912109375.9805908203125,3.6190185546875,1.30474853515625,5.96148681640625.99456787109375.01580810546875-.04541015625.1951904296875-.38555908203125.1947021484375-.5137939453125-.05224609375-.58795166015625-.1932373046875-1.17401123046875-.343017578125-1.79449462890625-.076416015625-.31866455078125-.15325927734375-.63739013671875-.21783447265625-.95751953125-.4119873046875-2.02801513671875-.33856201171875-3.19854736328125.2537841796875-4.0389404296875.5614013671875-.79705810546875,1.551513671875-1.2359619140625,3.31097412109375-1.46734619140625,1.74224853515625-.22943115234375,3.52587890625-.29876708984375,5.25030517578125-.3660888671875.99554443359375-.03887939453125,1.9910888671875-.0772705078125,2.98321533203125-.1461181640625.2503662109375-.0174560546875.580078125-.1351318359375.714111328125-.21795654296875.4080810546875-2.3551025390625.71173095703125-4.524658203125.92755126953125-6.62994384765625.026611328125-.2508544921875.02020263671875-.58355712890625-.15716552734375-.7496337890625-.16217041015625-.152099609375-.48651123046875-.19097900390625-.917724609375-.1121826171875Z"/><path id="topo_direito" class="cls-1" d="M74.346832275390625,7.381477355957031c-1.5401611328125,3.179569244384766-3.300117492675781,4.082315444946289-6.726890563964844,3.452406883239746h-.00048828125c-1.317375183105469-.242441177368164-2.283843994140625.303723335266113-2.869865417480469,1.623416900634766-.529808044433594,1.193039894104004-.284866333007812,2.184046745300293.770843505859375,3.118226051330566,1.044837951660156.923681259155273,2.136985778808594,1.220935821533203,3.247871398925781.880771636962891,2.043777465820312-.62294864654541,3.596267700195312-.489764213562012,4.616455078125.398515701293945,1.090675354003906.948095321655273,1.467216491699219,2.680280685424805,1.119247436523438,5.148092269897461-.128608703613281.913244247436523-.273025512695312,1.824960708618164-.417930603027344,2.736679077148438-.08673095703125.546653747558594-.1734619140625,1.093793869018555-.256782531738281,1.641422271728516-.03448486328125.225900650024414-.05908203125.453876495361328-.08868408203125.723661422729492.763397216796875.095279693603516,1.52142333984375.196054458618164,2.274986267089844.29627799987793,2.120689392089844.281808853149414,4.123641967773438.548116683959961,6.16748046875.696743011474609,1.046798706054688.075321197509766,1.697883605957031.077823638916016,1.935440063476562-.138616561889648.265640258789062-.241403579711914.312454223632812-1.061382293701172.349929809570312-2.193017959594727.054695129394531-1.696784973144531.373062133789062-3.791044235229492,2.364173889160156-4.92719841003418,1.307540893554688-.743680953979492,2.678627014160156-1.117231369018555,4.092079162597656-1.117231369018555.512588500976562,0,1.031044006347656.049379348754883,1.553955078125.147649765014648,2.302581787109375.433427810668945,3.645591735839844,2.145654678344727,3.592369079589844,4.580015182495117-.013313293457031.697294235229492-.124702453613281,1.384576797485352-.232620239257812,2.049398422241211-.0379638671875.233407974243164-.07586669921875.467365264892578-.109375.700771331787109-.127204895019531.880285263061523-.218330383300781,1.822948455810547.0679931640625,2.141626358032227.216865539550781.241403579711914.786102294921875.31971549987793,1.911758422851562.262338638305664,3.1123046875-.161077499389648,6.22613525390625-.33314323425293,9.348823547363281-.506244659423828l2.181846618652344-.120489120483398c-.681854248046875-7.152442932128906-3.761077880859375-14.119393348693848-9.23828125-19.596599578857422l-.00006103515625-.00006103515625C93.305709838867188,2.684637069702148,84.3843994140625-.423945426940918,75.619277954101562.04634952545166c.207710266113281,2.690473794937134-.216133117675781,5.157490730285645-1.272445678710938,7.335127830505371Z"/><path id="topo_esquerdo" class="cls-1" d="M7.607921123504639,30.198421478271484h.00048828125c1.054667949676514.36713981628418,2.261136531829834.428483963012695,3.427259922027588.488300323486328l.779632568359375.042909622192383c.131109237670898.00848388671875.359328269958496.0050048828125.456377983093262-.111761093139648.092166900634766-.110721588134766.105472564697266-.35755729675293.035036087036133-.661340713500977l-.065554618835449-.286266326904297c-.160651206970215-.701749801635742-.32728385925293-1.427913665771484-.417436599731445-2.161584854125977-.26514720916748-2.153650283813477.191230773925781-3.883272171020508,1.320303916931152-5.002029418945312.862522125244141-.854831695556641,2.060628890991211-1.293752670288086,3.506119728088379-1.293752670288086.380020141601562,0,.776765823364258.030458450317383,1.18925666809082.091312408447266,2.356782913208008.34858512878418,3.715600967407227,1.001993179321289,4.406059265136719,2.117698669433594.704738616943359,1.139144897460938.682094573974609,2.72368049621582-.073429107666016,5.138143539428711-.207527160644531.662805557250977-.403640747070312,1.329153060913086-.634790420532227,2.112205505371094l-.142950057983398.481830596923828,11.809612274169922-2.396030426025391c-.189216613769531-.613000869750977-.378982543945312-1.21299934387207-.565757751464844-1.803478240966797-.548057556152344-1.731208801269531-1.065046310424805-3.366098403930664-1.481504440307617-5.045425415039062-.31098747253418-1.250354766845703-.166572570800781-2.385532379150391.416946411132812-3.282295227050781.579065322875977-.890233993530273,1.538148880004883-1.466794967651367,2.77226448059082-1.667791366577148.786106109619141-.128728866577148,1.663825988769531-.125188827514648,2.608135223388672.00994873046875,1.310966491699219.190498352050781,2.504676818847656-.222909927368164,3.752529144287109-1.295766830444336.833408355712891-.716214179992676,1.022686004638672-1.496274948120117.595851898193359-2.456335067749023-.532249450683594-1.197495460510254-1.307548522949219-1.653385162353516-2.434669494628906-1.440424919128418-.476581573486328.090762138366699-.941806793212891.230416297912598-1.434139251708984.378554344177246-.394302368164062.118718147277832-.789093017578125.237436294555664-1.188766479492188.33021354675293-.991127014160156.231882095336914-1.879222869873047.121159553527832-2.561809539794922-.320752143859863-.678676605224609-.438371658325195-1.146892547607422-1.19896125793457-1.354850769042969-2.199489593505859-.216865539550781-1.045878410339355-.281932830810547-2.240871906280518-.193672180175781-3.552081108093262.150093078613281-2.220424652099609.756439208984375-4.307726860046387,1.821056365966797-6.352790832519531C25.128572463989258-.466428697109222,16.125715255737305,2.635622978210449,9.381244659423828,9.380091667175293h-.00006103515625C4.360599994659424,14.400737762451172,1.359504699707031,20.673690795898438.368071407079697,27.193235397338867c.6839260160923.290538787841797,1.366326123476028.585899353027344,2.047688394784927.885534286499023,1.690435647964478.742643356323242,3.439100980758667,1.511228561401367,5.192161321640015,2.119651794433594Z"/><path id="centro_centro" class="cls-1" d="M73.7105712890625,47.421394348144531h.0009765625l.677154541015625.05438232421875c.801361083984375.066837310791016,1.62933349609375.135139465332031,2.426795959472656.112186431884766,1.786079406738281-.05487060546875,2.402618408203125-.647361755371094,2.637733459472656-2.535133361816406.305557250976562-2.430942535400391-.544151306152344-4.321704864501953-2.674728393554688-5.951164245605469-1.026588439941406-.787017822265625-1.55194091796875-.796478271484375-2.342987060546875-.03240966796875-.843231201171875.811492919921875-1.830940246582031,1.131210327148438-2.706710815429688.874851226806641-.880706787109375-.256359100341797-1.52587890625-1.031963348388672-1.816169738769531-2.183071136474609-.370071411132812-1.459835052490234-.292739868164062-3.018917083740234-.217781066894531-4.526180267333984l.01971435546875-.409500122070312c.03741455078125-.812957763671875.207466125488281-1.594484329223633.404129028320312-2.499732971191406.05120849609375-.236886978149414.10491943359375-.482257843017578.158210754394531-.739652633666992l-2.089683532714844.173103332519531c-2.203521728515625.181035995483398-4.295703887939453.35310173034668-6.384349822998047.539632797241211-.391860961914062.034914016723633-.654991149902344.142644882202148-.782196044921875.320690155029297-.153263092041016.214975357055664-.167549133300781.612939834594727-.0413818359375,1.150131225585938.297191619873047,1.250843048095703.600303649902344,2.600505828857422.803375244140625,3.985023498535156.247875213623047,1.685794830322266-.485004425048828,2.865833282470703-1.960586547851562,3.15509033203125-3.186710357666016.628444671630859-6.089107513427734.178596496582031-8.623329162597656-1.339103698730469-2.055194854736328-1.230453491210938-2.599285125732422-2.886283874511719-1.712650299072266-5.211509704589844.350902557373047-.921178817749023.302623748779297-1.817453384399414-.129646301269531-2.397981643676758-.353836059570312-.474323272705078-.921604156494141-.690763473510742-1.635746002197266-.625940322875977-2.598796844482422.236398696899414-5.131977081298828.619470596313477-7.813602447509766,1.025430679321289-.915683746337891.138677597045898-1.835826873779297.277843475341797-2.761402130126953.411455154418945.127632141113281.456377029418945.254344940185547.894260406494141.377029418945312,1.318714141845703.362747192382812,1.254875183105469.705291748046875,2.440406799316406.943824768066406,3.629966735839844.346450805664062,1.716682434082031.147346496582031,3.083740234375-.591941833496094,4.062843322753906-.724456787109375.960548400878906-1.934402465820312,1.502197265625-3.594806671142578,1.610965728759766-.775726318359375.049869537353516-1.556396484375.0313720703125-2.311433792114258.013916015625-.384963989257812-.00897216796875-.769866943359375-.0184326171875-1.153793334960938-.0184326171875-1.487911224365234.00152587890625-2.089193344116211.526203155517578-2.296171188354492,2.006000518798828-.274974822998047,1.961074829101562.156744003295898,3.979038238525391,1.319875717163086,6.1690673828125.355789184570312.670314788818359.873813629150391.878818511962891,1.680608749389648.679286956787109.263134002685547-.065311431884766.526325225830078-.136665344238281.789520263671875-.207466125488281.618007659912109-.167060852050781,1.257740020751953-.339675903320312,1.911270141601562-.444416046142578.322826385498047-.05035400390625.628871917724609-.075809478759766.917701721191406-.075809478759766,1.727912902832031,0,2.853565216064453.907264709472656,3.509048461914062,2.802051544189453.401199340820312,1.160568237304688.601280212402344,2.389987945556641.794952392578125,3.579002380371094l.022705078125.139652252197266c.080265045166016.493793487548828.090152740478516,1.032451629638672.099983215332031,1.55316162109375.01580810546875.852817535400391.03253173828125,1.735115051269531.369152069091797,2.082298278808594.506187438964844.521198272705078,1.552978515625.654811859130859,2.565776824951172.784027099609375.369155883789062.046875.735321044921875.093753814697266,1.077861785888672.158088684082031l.386856079101562.07281494140625c3.678123474121094.691799163818359,7.481925964355469,1.407466888427734,11.137405395507812.499774932861328,3.351329803466797-.835418701171875,6.607070922851562-1.801521301269531,10.054046630859375-2.824939727783203,1.340080261230469-.397537231445312,2.689987182617188-.798004150390625,4.054664611816406-1.193038940429688-.00244140625-.037418365478516-.00543212890625-.074832916259766-.00787353515625-.112735748291016-.030029296875-.431903839111328-.0645751953125-.921669006347656-.029052734375-1.412471771240234.028564453125-.406936645507812.05169677734375-.816440582275391.07489013671875-1.226428985595703.076423645019531-1.348136901855469.155769348144531-2.742111206054688.437156677246094-4.081275939941406.471633911132812-2.246852874755859,1.64263916015625-3.09075927734375,4.025604248046875-2.915214538574219Z"/><path id="centro_esquerdo" class="cls-1" d="M23.470670700073242,57.905204772949219h.039430618286133c1.459346771240234,0,2.684555053710938.633876800537109,3.365184783935547,1.743114471435547.735319137573242,1.198043823242188.735319137573242,2.795032501220703-.0009765625,4.272811889648438-.29969596862793.602016448974609-.502218246459961,1.351612091064453-.570274353027344,2.110248565673828-.101993560791016,1.146652221679688.621973037719727,2.174530029296875,1.722053527832031,2.443885803222656,1.202011108398438.292739868164062,2.282865524291992-.256843566894531,2.621929168701172-1.339164733886719.232614517211914-.742156982421875.242990493774414-1.6104736328125.234079360961914-2.366058349609375-.00537109375-.450401306152344-.071414947509766-.904762268066406-.141424179077148-1.386043548583984-.055665969848633-.384048461914062-.111392974853516-.768585205078125-.137517929077148-1.153610229492188-.121219635009766-1.797492980957031.219797134399414-2.992061614990234,1.042888641357422-3.651878356933594.803316116333008-.645408630371094,1.978288650512695-.713222503662109,3.591878890991211-.210456848144531.451431274414062.141120910644531.900424957275391.291271209716797,1.467708587646484.481281280517578l.213386535644531.070804595947266c-.067020416259766-.429401397705078-.130619049072266-.847873687744141-.193183898925781-1.257373809814453-.229682922363281-1.501708984375-.446063995361328-2.920646667480469-.719081878662109-4.299732208251953-.071964263916016-.362560272216797-.218822479248047-.618431091308594-.436664581298828-.760589599609375-.289318084716797-.189033508300781-.676174163818359-.154605865478516-.946754455566406-.090274810791016-.344005584716797.078800201416016-.684597015380859.166084289550781-1.025123596191406.252880096435547-.550010681152344.140632629394531-1.100021362304688.280773162841797-1.656988143920898.387527465820312-1.999469757080078.385025024414062-3.526323318481445-.315196990966797-4.533199310302734-2.089317321777344-1.395257949829102-2.456333160400391-1.997028350830078-5.009475708007812-1.789499282836914-7.587516784667969.267099380493164-3.333141326904297,2.198083877563477-5.106708526611328,5.502597808837891-5.043903350830078l.661952972412109.019962310791016c.849643707275391.0284423828125,1.728401184082031.056884765625,2.563270568847656-.030399322509766.662380218505859-.069339752197266,1.075424194335938-.227912902832031,1.264148712158203-.485309600830078.192207336425781-.262340545654297.221813201904297-.720668792724609.090702056884766-1.400993347167969-.179874420166016-.930152893066406-.456375122070312-1.870803833007812-.723537445068359-2.780567169189453-.158699035644531-.538597106933594-.316905975341797-1.077251434326172-.458332061767578-1.619937896728516-.141910552978516-.547140121459961-.261669158935547-.621423721313477-.792022705078125-.496234893798828-2.221706390380859.516193389892578-4.491815567016602.970069885253906-6.686910629272461,1.408439636230469l-.885654449462891.177558898925781c-1.357780456542969.272838592529297-2.761463165283203.555137634277344-4.161603927612305.751129150390625-1.444576263427734.202522277832031-2.424839019775391-.01593017578125-2.997493743896484-.668300628662109-.590965270996094-.673854827880859-.685085296630859-1.746650695800781-.286388397216797-3.278816223144531.148870468139648-.573081970214844.32972526550293-1.134687423706055.511129379272461-1.695257186889648l.118778228759766-.368057250976562c.479511260986328-1.496274948120117.718046188354492-2.516212463378906.424821853637695-2.978082656860352-.287364959716797-.452350616455078-1.260730743408203-.649868011474609-2.73729133605957-.821933746337891-.823030471801758-.095279693603516-1.430720329284668.024904251098633-1.803781509399414.358596801757812-.366226196289062.32771110534668-.556480407714844.904760360717773-.564353942871094,1.715705871582031-.00689697265625.774566650390625.146856307983398,1.5576171875.309521675109863,2.387056350708008.059633255004883.305187225341797.119755744934082.610437393188477.171027183532715.914709091186523.202033996582031,1.19548225402832.049745559692383,2.156091690063477-.451922416687012,2.855339050292969-.480548858642578.669826507568359-1.27354907989502,1.091289520263672-2.355866432189941,1.251880645751953-.773224830627441.114688873291016-1.597292900085449.194526672363281-2.373995780944824.00750732421875-2.154748439788818-.524742126464844-4.445488452911377-1.100753784179688-6.688436508178711-1.86683464050293-1.080425977706909-.369033813476562-2.124656677246094-.878820419311523-3.225835800170898-1.418636322021484-.452226996421814,8.745096206665039,2.658613920211792,17.640104293823242,9.338138580322266,24.31968879699707l6.357490539550781,6.357490539550781c1.103375434875488-.708644866943359,2.200037956237793-1.389579772949219,3.33680248260498-1.975296020507812,1.440059661865234-.741607666015625,3.000911712646484-1.156112670898438,4.395193099975586-1.167041778564453Z"/><path id="base_esquerda" class="cls-1" d="M60.900436401367188,91.480262756347656c-.272533416748047-1.427909851074219-.534202575683594-2.629920959472656-.983680725097656-2.873825073242188-.435688018798828-.236404418945312-1.500244140625.1810302734375-2.744678497314453.707725524902344-2.527809143066406,1.068344116210938-4.163616180419922.486778259277344-5.467193603515625-1.947647094726562-1.815135955810547-3.388984680175781-1.835342407226562-7.096717834472656-.062564849853516-11.334617614746094.315441131591797-.753631591796875.815155029296875-1.285812377929688,1.444515228271484-1.5406494140625.681118011474609-.273811340332031,1.493343353271484-.220954895019531,2.351409912109375.156074523925781.889564514160156.388565063476562,1.710151672363281.938636779785156,2.503639221191406,1.4703369140625l.098087310791016.06585693359375c.689968109130859.464797973632812,1.170516967773438.647361755371094,1.427303314208984.553123474121094.167060852050781-.0628662109375.416946411132812-.322219848632812.658901214599609-1.199996948242188,1.115829467773438-4.063880920410156.025634765625-7.952163696289062-1.128585815429688-12.068840026855469l-.075931549072266-.271862030029297c-3.790493011474609,1.437923431396484-7.811588287353516,1.727733612060547-12.270870208740234.887790679931641-3.945285797119141-.742153167724609-7.905281066894531-1.751106262207031-11.596710205078125-2.731674194335938-.421405792236328-.110721588134766-1.413997650146484-.372085571289062-1.595829010009766-.265331268310547-.136539459228516.175544738769531.00048828125,1.292289733886719.045352935791016,1.659370422363281.026123046875.210945129394531.06353759765625.422927856445312.101016998291016.635398864746094.080814361572266.463336944580078.164615631103516.942119598388672.148319244384766,1.436885833740234l-.00592041015625.199043273925781c-.031982421875,1.009437561035156-.065006256103516,2.053367614746094-.360244750976562,3.02740478515625-.703273773193359,2.323699951171875-2.918144226074219,3.732200622558594-5.373991012573242,3.423477172851562-2.483983993530273-.308731079101562-4.271041870117188-2.151641845703125-4.446464538574219-4.5860595703125-.068056106567383-.942115783691406.156682968139648-1.872329711914062.374526977539062-2.772087097167969.096134185791016-.396984100341797.192207336425781-.793972015380859.261728286743164-1.189498901367188.037416458129883-.218452453613281.100040435791016-.482807159423828.163093566894531-.749111175537109.060182571411133-.251415252685547.152288436889648-.638942718505859.178411483764648-.856906890869141-.599754333496094-.345596313476562-1.318349838256836-.518211364746094-1.806283950805664-.431415557861328-1.841503143310547.336990356445312-3.452468872070312,1.235279083251953-4.924205780029297,2.239227294921875l36.877559661865234,36.877559661865234,6.493358612060547-6.493362426757812c-.024169921875-.186286926269531-.051395416259766-.371841430664062-.074100494384766-.558555603027344-.05865478515625-.491287231445312-.117313385009766-.982582092285156-.209968566894531-1.46783447265625Z"/><path id="base_direita" class="cls-1" d="M87.598030090332031,59.018898010253906h-.00103759765625c-.279434204101562.02496337890625-.573143005371094.101261138916016-.857521057128906.175544738769531-1.043373107910156.269359588623047-1.390800476074219.847873687744141-1.161666870117188,1.935195922851562l.157234191894531.720180511474609c.154243469238281.694244384765625.313911437988281,1.411983489990234.406082153320312,2.137172698974609.356338500976562,2.782516479492188-.778656005859375,5.255882263183594-2.890556335449219,6.30023193359375-2.139915466308594,1.057357788085938-4.919082641601562.587066650390625-6.609024047851562-1.118202209472656-1.792984008789062-1.814468383789062-2.383949279785156-4.835884094238281-1.4051513671875-7.185039520263672.260208129882812-.623439788818359.339553833007812-.990032196044922.257766723632812-1.189014434814453-.079353332519531-.192512512207031-.384902954101562-.391006469726562-.961524963378906-.625450134277344-.363723754882812-.149116516113281-.780181884765625-.206489562988281-1.220817565917969-.267833709716797l-.273506164550781-.03887939453125c-1.907302856445312-.282299041748047-3.655479431152344.262336730957031-5.506568908691406.839385986328125-.798431396484375.248363494873047-1.62396240234375.505760192871094-2.459808349609375.689300537109375-.896522521972656.196479797363281-1.769847869873047.484760284423828-2.614059448242188.764068603515625-.207038879394531.068359375-.410537719726562.135135650634766-.609642028808594.199531555175781.148319244384766.782501220703125.307506561279297,1.55059814453125.464252471923828,2.309169769287109.434646606445312,2.098777770996094.845184326171875,4.081336975097656.987648010253906,6.11871337890625.146366119384766,2.095787048339844-.149848937988281,4.391532897949219-.833896636962891,6.463882446289062-.508136749267578,1.54364013671875-1.380485534667969,2.144615173339844-2.023151397705078,2.376556396484375-1.013282775878906.368057250976562-2.226650238037109.127693176269531-3.506607055664062-.690277099609375-.300609588623047-.192024230957031-.599266052246094-.389541625976562-.897983551025391-.587059020996094-.439594268798828-.290779113769531-.879737854003906-.582054138183594-1.329154968261719-.855377197265625-.242015838623047-.146125793457031-.411090850830078-.169563293457031-.487934112548828-.138618469238281-.076419830322266.0289306640625-.151313781738281.143623352050781-.205513000488281.314712524414062-.755523681640625,2.361602783203125-1.347465515136719,5.155601501464844-.010868072509766,7.984504699707031.621974945068359,1.317253112792969.889625549316406,1.42095947265625,2.203029632568359.871864318847656l.162666320800781-.068367004394531c.465717315673828-.195503234863281.931434631347656-.390518188476562,1.410030364990234-.543594360351562.751064300537109-.238418579101562,1.402641296386719-.358108520507812,1.974319458007812-.358108520507812.570213317871094,0,1.061626434326172.11865234375,1.49432373046875.356094360351562.866428375244141.474807739257812,1.465267181396484,1.401969909667969,1.885143280029297,2.918205261230469.196846008300781.709678649902344.360733032226562,1.437431335449219.520713806152344,2.208518981933594l31.713901519775391-31.713901519775391c-2.450965881347656-.446186065673828-5.004165649414062-.553672790527344-7.7711181640625-.303112030029297Z"/></g><path class="cls-1" d="M255.14453125,86.34375h-13.8994140625l8.16796875-9.671875c.5302734375-.6376953125.8955078125-1.1728515625,1.09375-1.603515625.240234375-.4970703125.3603515625-.9404296875.3603515625-1.330078125,0-.638671875-.1943359375-1.1640625-.583984375-1.5791015625-.4306640625-.3896484375-.9658203125-.583984375-1.603515625-.583984375-.779296875,0-1.3720703125.248046875-1.77734375.74609375-.431640625.5048828125-.646484375,1.2265625-.646484375,2.1630859375v.2236328125h-4.3759765625v-.125c0-2.046875.6044921875-3.6669921875,1.814453125-4.8603515625,1.185546875-1.193359375,2.830078125-1.7900390625,4.935546875-1.7900390625,2.0390625,0,3.6591796875.5263671875,4.861328125,1.5791015625,1.2177734375,1.0439453125,1.8271484375,2.4443359375,1.8271484375,4.201171875,0,.837890625-.1953125,1.6708984375-.583984375,2.4990234375-.3896484375.8203125-1.015625,1.703125-1.8779296875,2.6484375l-3.28125,3.6171875h5.5693359375v3.8662109375Z"/><path class="cls-1" d="M273.12109375,77.5546875c0,2.8759765625-.609375,5.142578125-1.828125,6.7998046875-1.2265625,1.6494140625-2.9091796875,2.4736328125-5.046875,2.4736328125-2.138671875,0-3.81640625-.8408203125-5.03515625-2.5234375-.3974609375-.5302734375-.7412109375-1.1533203125-1.03125-1.87109375-.2900390625-.716796875-.501953125-1.4892578125-.634765625-2.318359375-.1318359375-.828125-.1982421875-1.740234375-.1982421875-2.734375,0-1.4755859375.1552734375-2.7890625.4658203125-3.94140625.310546875-1.1513671875.77734375-2.146484375,1.3984375-2.9833984375,1.2265625-1.666015625,2.9052734375-2.4990234375,5.03515625-2.4990234375,2.1630859375,0,3.853515625.8330078125,5.072265625,2.4990234375,1.201171875,1.7158203125,1.802734375,4.08203125,1.802734375,7.0986328125ZM263.93359375,77.380859375c0,2.021484375.1865234375,3.47265625.5595703125,4.3505859375.373046875.919921875.95703125,1.3798828125,1.7529296875,1.3798828125.779296875,0,1.35546875-.4599609375,1.7275390625-1.3798828125.373046875-.8779296875.5595703125-2.3291015625.5595703125-4.3505859375,0-1.9970703125-.1865234375-3.439453125-.5595703125-4.326171875-.3720703125-.9365234375-.9482421875-1.4052734375-1.7275390625-1.4052734375-.8203125,0-1.4052734375.4521484375-1.7529296875,1.35546875-.373046875.88671875-.5595703125,2.345703125-.5595703125,4.3759765625Z"/><path class="cls-1" d="M289.9482421875,86.34375h-13.8994140625l8.16796875-9.671875c.5302734375-.6376953125.8955078125-1.1728515625,1.09375-1.603515625.240234375-.4970703125.3603515625-.9404296875.3603515625-1.330078125,0-.638671875-.1943359375-1.1640625-.583984375-1.5791015625-.4306640625-.3896484375-.9658203125-.583984375-1.603515625-.583984375-.779296875,0-1.3720703125.248046875-1.77734375.74609375-.431640625.5048828125-.646484375,1.2265625-.646484375,2.1630859375v.2236328125h-4.3759765625v-.125c0-2.046875.6044921875-3.6669921875,1.814453125-4.8603515625,1.185546875-1.193359375,2.830078125-1.7900390625,4.935546875-1.7900390625,2.0390625,0,3.6591796875.5263671875,4.861328125,1.5791015625,1.2177734375,1.0439453125,1.8271484375,2.4443359375,1.8271484375,4.201171875,0,.837890625-.1953125,1.6708984375-.583984375,2.4990234375-.3896484375.8203125-1.015625,1.703125-1.8779296875,2.6484375l-3.28125,3.6171875h5.5693359375v3.8662109375Z"/><path class="cls-1" d="M300.3681640625,74.732421875c.3310546875-.0908203125.6337890625-.1572265625.9072265625-.19921875.306640625-.048828125.6376953125-.07421875.994140625-.07421875,1.56640625,0,2.8388671875.54296875,3.8173828125,1.62890625,1.0185546875,1.09375,1.5283203125,2.4658203125,1.5283203125,4.1142578125,0,2.005859375-.625,3.6142578125-1.876953125,4.82421875-1.29296875,1.201171875-2.9921875,1.8017578125-5.0966796875,1.8017578125-2.1220703125,0-3.7998046875-.591796875-5.03515625-1.77734375-.3896484375-.3642578125-.7294921875-.8017578125-1.01953125-1.3115234375s-.5029296875-1.05078125-.6396484375-1.6220703125c-.13671875-.572265625-.205078125-1.2021484375-.205078125-1.8896484375,0-1.0771484375.2109375-2.146484375.6337890625-3.2080078125.40625-1.0849609375,1.2802734375-2.671875,2.623046875-4.7607421875l2.548828125-3.9404296875h5.0712890625l-4.2509765625,6.4140625ZM300.591796875,77.6416015625c-.853515625,0-1.525390625.244140625-2.013671875.7333984375-.4892578125.513671875-.7333984375,1.2021484375-.7333984375,2.0634765625,0,.845703125.244140625,1.525390625.7333984375,2.0390625.48828125.4892578125,1.16015625.7333984375,2.013671875.7333984375s1.5244140625-.244140625,2.013671875-.7333984375c.4892578125-.513671875.7333984375-1.193359375.7333984375-2.0390625,0-.861328125-.244140625-1.5498046875-.7333984375-2.0634765625-.4892578125-.4892578125-1.16015625-.7333984375-2.013671875-.7333984375Z"/></svg>